<?xml version="1.0" standalone="no"?>
<!DOCTYPE svg PUBLIC "-//W3C//DTD SVG 20010904//EN"
 "http://www.w3.org/TR/2001/REC-SVG-20010904/DTD/svg10.dtd">
<svg version="1.0" xmlns="http://www.w3.org/2000/svg"
 width="512.000000pt" height="512.000000pt" viewBox="0 0 512.000000 512.000000"
 preserveAspectRatio="xMidYMid meet">

<g transform="translate(0.000000,512.000000) scale(0.100000,-0.100000)"
fill="#000000" stroke="none">
<path d="M0 4765 l0 -355 2225 0 2225 0 0 355 0 355 -2225 0 -2225 0 0 -355z"/>
<path d="M4748 2868 l-3 -1583 -27 -98 c-107 -389 -396 -678 -785 -785 l-98
-27 -1582 -3 -1583 -2 0 -185 0 -185 2225 0 2225 0 0 2225 0 2225 -185 0 -185
0 -2 -1582z"/>
<path d="M0 2390 l0 -1720 1648 0 c1441 0 1655 2 1699 15 68 20 143 88 174
157 23 52 24 60 27 390 l4 337 351 3 c402 3 395 2 476 94 75 86 71 12 71 1296
l0 1148 -2225 0 -2225 0 0 -1720z m1150 980 l0 -150 -150 0 -150 0 0 150 0
150 150 0 150 0 0 -150z m2348 -2 l3 -148 -976 0 -975 0 0 150 0 150 973 -2
972 -3 3 -147z m-2348 -678 l0 -150 -150 0 -150 0 0 150 0 150 150 0 150 0 0
-150z m2348 3 l-3 -148 -972 -3 -973 -2 0 150 0 150 975 0 976 0 -3 -147z
m-2348 -673 l0 -150 -150 0 -150 0 0 150 0 150 150 0 150 0 0 -150z m2348 -2
l3 -148 -976 0 -975 0 0 150 0 150 973 -2 972 -3 3 -147z"/>
<path d="M4398 1315 c-61 -33 -150 -45 -350 -45 l-198 0 0 -148 c0 -183 -14
-299 -45 -377 -13 -32 -22 -61 -20 -63 8 -8 137 29 200 57 215 98 381 294 439
518 22 84 22 84 -26 58z"/>
</g>
</svg>
